<svg width="50" height="50" viewBox="0 0 256 153" xmlns="http://www.w3.org/2000/svg" preserveAspectRatio="xMidYMid">
  <path d="M72.392 55.438c0 3.137.456 5.67 1.256 7.711.913 2.041 2.168 4.309 3.88 6.917.57.798.798 1.596.798 2.28 0 .912-.57 1.824-1.71 2.735l-5.67 3.766c-.798.57-1.596.798-2.394.798-1.027 0-1.938-.456-2.85-1.368-1.596-1.71-2.964-3.423-3.88-5.247-1.026-1.938-2.053-4.082-3.08-6.575-7.712 9.117-17.401 13.72-29.122 13.72-8.281 0-14.86-2.394-19.691-7.143-4.832-4.832-7.257-11.297-7.257-19.463 0-8.623 3.08-15.659 9.344-20.946 6.26-5.287 14.63-7.94 25.355-7.94 3.537 0 7.143.228 10.978.798 3.766.57 7.598 1.255 11.524 2.28v-7.484c0-7.712-1.596-13.04-4.788-16.132-3.194-3.08-8.624-4.65-16.45-4.65-3.537 0-7.188.456-11.067 1.254-3.88.798-7.599 1.71-11.182 2.85-1.71.683-2.964 1.14-3.766 1.368-.798.228-1.368.342-1.824.342-1.596 0-2.394-1.141-2.394-3.423v-5.474c0-1.824.228-3.08.798-3.88.57-.797 1.596-1.595 3.194-2.28 3.537-1.824 7.826-3.308 12.772-4.65C33.326.912 38.5.228 43.902.228c12.544 0 21.66 2.85 27.35 8.51 5.575 5.66 8.395 14.289 8.395 25.925v34.066h-.114zm-40.19 15.089c3.422 0 6.916-.57 10.636-1.824 3.652-1.255 6.917-3.766 9.571-7.37a18.16 18.16 0 0 0 3.88-5.928c1.027-2.28 1.482-4.946 1.482-8.053v-3.88c-3.08-.798-6.347-1.368-9.686-1.824-3.422-.456-6.801-.684-10.179-.684-7.256 0-12.657 1.368-16.132 4.196-3.537 2.85-5.247 6.916-5.247 12.203 0 4.946 1.254 8.624 3.88 11.182 2.508 2.622 6.345 3.88 11.295 3.88l.5.114zm79.69 10.75c-2.052 0-3.422-.342-4.334-1.14-.912-.684-1.71-2.28-2.508-4.434l-27.919-91.62c-.798-2.622-1.141-4.334-1.141-5.362 0-2.166 1.026-3.308 3.194-3.308h12.999c2.166 0 3.537.342 4.336 1.14.912.685 1.596 2.281 2.394 4.435l19.92 78.504 18.55-78.504c.685-2.622 1.368-3.88 2.28-4.435.912-.684 2.394-1.14 4.45-1.14h10.636c2.166 0 3.651.342 4.45 1.14.911.685 1.823 2.281 2.28 4.435l18.778 79.53 20.491-79.53c.798-2.622 1.596-3.88 2.394-4.435.912-.684 2.28-1.14 4.336-1.14h12.315c2.166 0 3.308.912 3.308 3.308 0 .57-.114 1.141-.228 1.938-.114.798-.456 1.824-.912 3.423l-28.603 91.62c-.798 2.622-1.596 3.88-2.508 4.435-.912.684-2.394 1.14-4.336 1.14h-11.41c-2.167 0-3.652-.342-4.45-1.14-.912-.685-1.71-2.281-2.28-4.436l-18.436-76.906-18.322 76.792c-.684 2.622-1.368 3.88-2.28 4.436-.912.684-2.394 1.14-4.45 1.14h-11.296zM254.67 75.7c-4.79 0-9.572-.57-14.176-1.71-4.563-1.141-8.167-2.394-10.522-3.765-1.482-.912-2.508-1.824-2.85-2.736a7.126 7.126 0 0 1-.456-2.622v-5.702c0-2.28.912-3.422 2.622-3.422.684 0 1.368.114 2.053.342.798.228 1.938.684 3.422 1.254 4.563 1.938 9.458 3.423 14.745 4.336 5.36.912 10.636 1.368 15.887 1.368 8.51 0 15.089-1.482 19.806-4.45 4.718-2.964 7.143-7.256 7.143-12.885 0-3.766-1.255-6.917-3.651-9.458-2.395-2.508-6.918-4.79-13.265-6.69l-19.008-5.93c-9.572-3.08-16.66-7.598-21.034-13.606-4.336-5.93-6.575-12.544-6.575-19.691 0-5.702 1.255-10.75 3.652-15.09 2.394-4.334 5.702-8.051 9.8-11.13 4.106-3.08 8.852-5.361 14.404-6.918 5.474-1.596 11.524-2.28 17.857-2.28 2.053 0 4.22.113 6.346.342 2.28.228 4.336.57 6.46.912 2.053.456 4.107.798 6.046 1.368 1.938.456 3.537.912 4.832 1.482 1.368.57 2.507 1.141 3.308 1.71.798.569 1.482 1.367 1.824 2.28.342.798.57 1.938.57 3.308v5.246c0 2.28-.798 3.422-2.508 3.422-.912 0-2.394-.456-4.22-1.255-6.347-2.85-13.493-4.334-21.377-4.334-7.712 0-13.835 1.254-18.21 3.879-4.334 2.622-6.574 6.688-6.574 12.43 0 3.766 1.368 6.918 4.106 9.457 2.736 2.508 7.826 5.133 14.973 7.37l18.665 5.93c9.457 3.08 16.318 7.37 20.49 12.885 4.107 5.474 6.232 11.638 6.232 18.322 0 5.816-1.14 11.068-3.536 15.659-2.395 4.563-5.588 8.51-9.8 11.752-4.22 3.308-9.23 5.703-15.089 7.37-5.93 1.71-12.43 2.508-19.577 2.508l.114.114z" fill="#FF9900"/>
  <path d="M230.993 120.964c-27.693 20.376-67.885 31.239-102.406 31.239-48.45 0-92.076-17.97-125.158-47.89-2.622-2.395-.228-5.588 2.85-3.765 35.547 20.605 79.53 33.152 124.93 33.152 30.697 0 64.464-6.346 95.388-19.464 4.79-2.052 8.738 3.08 4.22 6.803l.228-.114.114.057v-.018zm11.524-13.15c-3.537-4.563-23.443-2.167-32.332-1.14-2.736.343-3.194-2.052-.684-3.766 15.887-11.182 41.926-7.94 44.89-4.22 2.964 3.766-.798 29.804-15.659 42.242-2.28 1.938-4.563.912-3.537-1.596 3.422-8.396 10.865-27.123 7.37-31.687l-.048.167z" fill="#FF9900"/>
</svg>
